<?xml version="1.0" encoding="utf-8"?>
<!-- Generator: Adobe Illustrator 22.1.0, SVG Export Plug-In . SVG Version: 6.00 Build 0)  -->
<svg version="1.1" id="Layer_1" xmlns="http://www.w3.org/2000/svg" xmlns:xlink="http://www.w3.org/1999/xlink" x="0px" y="0px"
	 viewBox="0 0 254 254" style="enable-background:new 0 0 254 254;" xml:space="preserve">
<style type="text/css">
	.st0{fill:#1890FF;stroke:#FFFFFF;stroke-width:8;}
	.st1{fill:#FFFFFF;}
</style>
<circle class="st0" cx="127" cy="127" r="123"/>
<path class="st1" d="M70.6,137.4c10.5-15.1,16.6-24.8,21.1-32c-17.3,1.6-33.8,23-33.8,23l11.4,11.4C69.7,139,70.1,138.2,70.6,137.4z
	"/>
<path class="st1" d="M115.2,185.7l11.4,11.4c0,0,21.5-16.5,23-33.8c-7.2,4.5-16.9,10.7-32,21.1C116.8,184.9,116,185.3,115.2,185.7z"
	/>
<path class="st1" d="M97.8,179.7c-1.9,0.8-3.8,1.6-5.8,2.3c-5.4,1.7-10.9,3-16.4,3.7c-2.4,0.4-4.8,0.6-7.1,0.8
	c0-0.3,0.1-0.5,0.1-0.9c0.5-5.7,1.4-11.3,2.7-16.9c0.6-2.7,1.6-5.3,2.5-7.9c0.5-1.6,1.3-3.2,2-4.8l-1.3-1.3
	c-2.8,1.9-5.3,4.2-7.3,6.9c-3,4-5.4,8.4-6.9,13.2c-1.7,5.1-2.7,10.4-2.9,15.8c-0.1,0.7-0.1,1.6,0,2.3c0.3,2,1.7,3.6,3.6,4.2
	c0.7,0.2,1.6,0.3,2.4,0.3c4.9-0.1,9.9-0.8,14.5-2.3c8.5-2.6,17.2-7.3,22.2-14.8l-1.2-1.2C98.5,179.5,98.2,179.6,97.8,179.7z"/>
<path class="st1" d="M192.7,62.3L192.7,62.3c-0.9-0.9-2.1-1.4-3.4-1.4h-0.1c-15.3,0.3-52.8,3.1-72.7,23.1c-9,9-12.1,13.8-18.5,24.1
	c-4.7,7.4-11,17.6-22.7,34.4c-1.3,1.9-1.1,4.4,0.5,6l30.5,30.5c1.6,1.6,4.2,1.8,6,0.5c16.7-11.6,27-18,34.4-22.7
	c10.3-6.5,15.1-9.4,24.1-18.5c20-20,22.8-57.5,23.1-72.7C194.1,64.4,193.6,63.2,192.7,62.3z M157.4,119.8c-6.1,6.1-16.1,6.1-22.2,0
	s-6.1-16.1,0-22.2s16.1-6.1,22.2,0C163.5,103.7,163.5,113.7,157.4,119.8L157.4,119.8L157.4,119.8z"/>
</svg>
